<mxfile host="app.diagrams.net" agent="Mozilla/5.0 (Windows NT 10.0; Win64; x64) AppleWebKit/537.36 (KHTML, like Gecko) Chrome/136.0.0.0 Safari/537.36" version="27.0.2">
  <diagram id="R2lEEEUBdFMjLlhIrx00" name="Page-1">
    <mxGraphModel dx="992" dy="1692" grid="1" gridSize="10" guides="1" tooltips="1" connect="1" arrows="1" fold="1" page="1" pageScale="1" pageWidth="850" pageHeight="1100" math="0" shadow="0" extFonts="Permanent Marker^https://fonts.googleapis.com/css?family=Permanent+Marker">
      <root>
        <mxCell id="0" />
        <mxCell id="1" parent="0" />
        <mxCell id="C-vyLk0tnHw3VtMMgP7b-23" value="User" style="shape=table;startSize=30;container=1;collapsible=1;childLayout=tableLayout;fixedRows=1;rowLines=0;fontStyle=1;align=center;resizeLast=1;" parent="1" vertex="1">
          <mxGeometry x="130" y="80" width="300" height="440" as="geometry" />
        </mxCell>
        <mxCell id="C-vyLk0tnHw3VtMMgP7b-24" value="" style="shape=partialRectangle;collapsible=0;dropTarget=0;pointerEvents=0;fillColor=none;points=[[0,0.5],[1,0.5]];portConstraint=eastwest;top=0;left=0;right=0;bottom=1;" parent="C-vyLk0tnHw3VtMMgP7b-23" vertex="1">
          <mxGeometry y="30" width="300" height="30" as="geometry" />
        </mxCell>
        <mxCell id="C-vyLk0tnHw3VtMMgP7b-25" value="PK" style="shape=partialRectangle;overflow=hidden;connectable=0;fillColor=none;top=0;left=0;bottom=0;right=0;fontStyle=1;" parent="C-vyLk0tnHw3VtMMgP7b-24" vertex="1">
          <mxGeometry width="30" height="30" as="geometry">
            <mxRectangle width="30" height="30" as="alternateBounds" />
          </mxGeometry>
        </mxCell>
        <mxCell id="C-vyLk0tnHw3VtMMgP7b-26" value="user_id UUID, Indexed" style="shape=partialRectangle;overflow=hidden;connectable=0;fillColor=none;top=0;left=0;bottom=0;right=0;align=left;spacingLeft=6;fontStyle=5;" parent="C-vyLk0tnHw3VtMMgP7b-24" vertex="1">
          <mxGeometry x="30" width="270" height="30" as="geometry">
            <mxRectangle width="270" height="30" as="alternateBounds" />
          </mxGeometry>
        </mxCell>
        <mxCell id="C-vyLk0tnHw3VtMMgP7b-27" value="" style="shape=partialRectangle;collapsible=0;dropTarget=0;pointerEvents=0;fillColor=none;points=[[0,0.5],[1,0.5]];portConstraint=eastwest;top=0;left=0;right=0;bottom=0;" parent="C-vyLk0tnHw3VtMMgP7b-23" vertex="1">
          <mxGeometry y="60" width="300" height="40" as="geometry" />
        </mxCell>
        <mxCell id="C-vyLk0tnHw3VtMMgP7b-28" value="" style="shape=partialRectangle;overflow=hidden;connectable=0;fillColor=none;top=0;left=0;bottom=0;right=0;" parent="C-vyLk0tnHw3VtMMgP7b-27" vertex="1">
          <mxGeometry width="30" height="40" as="geometry">
            <mxRectangle width="30" height="40" as="alternateBounds" />
          </mxGeometry>
        </mxCell>
        <mxCell id="C-vyLk0tnHw3VtMMgP7b-29" value="first_name VARCHAR NOT NULL" style="shape=partialRectangle;overflow=hidden;connectable=0;fillColor=none;top=0;left=0;bottom=0;right=0;align=left;spacingLeft=6;gradientColor=default;strokeColor=default;" parent="C-vyLk0tnHw3VtMMgP7b-27" vertex="1">
          <mxGeometry x="30" width="270" height="40" as="geometry">
            <mxRectangle width="270" height="40" as="alternateBounds" />
          </mxGeometry>
        </mxCell>
        <mxCell id="FHqgFPssAjhwbdw2BQE9-12" value="" style="shape=tableRow;horizontal=0;startSize=0;swimlaneHead=0;swimlaneBody=0;fillColor=none;collapsible=0;dropTarget=0;points=[[0,0.5],[1,0.5]];portConstraint=eastwest;top=0;left=0;right=0;bottom=0;" parent="C-vyLk0tnHw3VtMMgP7b-23" vertex="1">
          <mxGeometry y="100" width="300" height="30" as="geometry" />
        </mxCell>
        <mxCell id="FHqgFPssAjhwbdw2BQE9-13" value="" style="shape=partialRectangle;connectable=0;fillColor=none;top=0;left=0;bottom=0;right=0;editable=1;overflow=hidden;" parent="FHqgFPssAjhwbdw2BQE9-12" vertex="1">
          <mxGeometry width="30" height="30" as="geometry">
            <mxRectangle width="30" height="30" as="alternateBounds" />
          </mxGeometry>
        </mxCell>
        <mxCell id="FHqgFPssAjhwbdw2BQE9-14" value="last_name VARCHAR NOT NULL" style="shape=partialRectangle;connectable=0;fillColor=none;top=0;left=0;bottom=0;right=0;align=left;spacingLeft=6;overflow=hidden;" parent="FHqgFPssAjhwbdw2BQE9-12" vertex="1">
          <mxGeometry x="30" width="270" height="30" as="geometry">
            <mxRectangle width="270" height="30" as="alternateBounds" />
          </mxGeometry>
        </mxCell>
        <mxCell id="FHqgFPssAjhwbdw2BQE9-27" value="email VARCHAR, UNIQUE, NOT NULL" style="whiteSpace=wrap;html=1;align=left;" parent="1" vertex="1">
          <mxGeometry x="160" y="210" width="210" height="40" as="geometry" />
        </mxCell>
        <mxCell id="FHqgFPssAjhwbdw2BQE9-28" value="password_hash VARCHAR, NOT NULL" style="whiteSpace=wrap;html=1;align=left;" parent="1" vertex="1">
          <mxGeometry x="160" y="250" width="210" height="40" as="geometry" />
        </mxCell>
        <mxCell id="FHqgFPssAjhwbdw2BQE9-29" value="phone_number VARCHAR, NOT NULL" style="whiteSpace=wrap;html=1;align=left;" parent="1" vertex="1">
          <mxGeometry x="160" y="290" width="210" height="40" as="geometry" />
        </mxCell>
        <mxCell id="FHqgFPssAjhwbdw2BQE9-30" value="phone_number VARCHAR, NOT NULL" style="whiteSpace=wrap;html=1;align=left;" parent="1" vertex="1">
          <mxGeometry x="160" y="330" width="210" height="40" as="geometry" />
        </mxCell>
        <mxCell id="FHqgFPssAjhwbdw2BQE9-31" value="role&amp;nbsp; ENUM(guest, host, admin), NOT NULL" style="whiteSpace=wrap;html=1;align=left;" parent="1" vertex="1">
          <mxGeometry x="160" y="370" width="210" height="40" as="geometry" />
        </mxCell>
        <mxCell id="FHqgFPssAjhwbdw2BQE9-33" value="created_at TIMESTAMP, DEFAULT CURRENT_TIMESTAMP" style="whiteSpace=wrap;html=1;align=left;" parent="1" vertex="1">
          <mxGeometry x="160" y="410" width="210" height="40" as="geometry" />
        </mxCell>
        <mxCell id="sEl1DTWgJ6SeNd6wzwwH-1" value="Property" style="shape=table;startSize=30;container=1;collapsible=1;childLayout=tableLayout;fixedRows=1;rowLines=0;fontStyle=1;align=center;resizeLast=1;" parent="1" vertex="1">
          <mxGeometry x="760" y="70" width="359" height="450" as="geometry" />
        </mxCell>
        <mxCell id="sEl1DTWgJ6SeNd6wzwwH-2" value="" style="shape=partialRectangle;collapsible=0;dropTarget=0;pointerEvents=0;fillColor=none;points=[[0,0.5],[1,0.5]];portConstraint=eastwest;top=0;left=0;right=0;bottom=1;" parent="sEl1DTWgJ6SeNd6wzwwH-1" vertex="1">
          <mxGeometry y="30" width="359" height="30" as="geometry" />
        </mxCell>
        <mxCell id="sEl1DTWgJ6SeNd6wzwwH-3" value="PK" style="shape=partialRectangle;overflow=hidden;connectable=0;fillColor=none;top=0;left=0;bottom=0;right=0;fontStyle=1;" parent="sEl1DTWgJ6SeNd6wzwwH-2" vertex="1">
          <mxGeometry width="30" height="30" as="geometry">
            <mxRectangle width="30" height="30" as="alternateBounds" />
          </mxGeometry>
        </mxCell>
        <mxCell id="sEl1DTWgJ6SeNd6wzwwH-4" value="property_id UUID, Indexed" style="shape=partialRectangle;overflow=hidden;connectable=0;fillColor=none;top=0;left=0;bottom=0;right=0;align=left;spacingLeft=6;fontStyle=5;" parent="sEl1DTWgJ6SeNd6wzwwH-2" vertex="1">
          <mxGeometry x="30" width="329" height="30" as="geometry">
            <mxRectangle width="329" height="30" as="alternateBounds" />
          </mxGeometry>
        </mxCell>
        <mxCell id="sEl1DTWgJ6SeNd6wzwwH-5" value="" style="shape=partialRectangle;collapsible=0;dropTarget=0;pointerEvents=0;fillColor=none;points=[[0,0.5],[1,0.5]];portConstraint=eastwest;top=0;left=0;right=0;bottom=0;" parent="sEl1DTWgJ6SeNd6wzwwH-1" vertex="1">
          <mxGeometry y="60" width="359" height="40" as="geometry" />
        </mxCell>
        <mxCell id="sEl1DTWgJ6SeNd6wzwwH-6" value="" style="shape=partialRectangle;overflow=hidden;connectable=0;fillColor=none;top=0;left=0;bottom=0;right=0;" parent="sEl1DTWgJ6SeNd6wzwwH-5" vertex="1">
          <mxGeometry width="30" height="40" as="geometry">
            <mxRectangle width="30" height="40" as="alternateBounds" />
          </mxGeometry>
        </mxCell>
        <mxCell id="sEl1DTWgJ6SeNd6wzwwH-7" value="" style="shape=partialRectangle;overflow=hidden;connectable=0;fillColor=none;top=0;left=0;bottom=0;right=0;align=left;spacingLeft=6;gradientColor=default;strokeColor=default;" parent="sEl1DTWgJ6SeNd6wzwwH-5" vertex="1">
          <mxGeometry x="30" width="329" height="40" as="geometry">
            <mxRectangle width="329" height="40" as="alternateBounds" />
          </mxGeometry>
        </mxCell>
        <mxCell id="sEl1DTWgJ6SeNd6wzwwH-8" value="" style="shape=tableRow;horizontal=0;startSize=0;swimlaneHead=0;swimlaneBody=0;fillColor=none;collapsible=0;dropTarget=0;points=[[0,0.5],[1,0.5]];portConstraint=eastwest;top=0;left=0;right=0;bottom=0;" parent="sEl1DTWgJ6SeNd6wzwwH-1" vertex="1">
          <mxGeometry y="100" width="359" height="40" as="geometry" />
        </mxCell>
        <mxCell id="sEl1DTWgJ6SeNd6wzwwH-9" value="" style="shape=partialRectangle;connectable=0;fillColor=none;top=0;left=0;bottom=0;right=0;editable=1;overflow=hidden;" parent="sEl1DTWgJ6SeNd6wzwwH-8" vertex="1">
          <mxGeometry width="30" height="40" as="geometry">
            <mxRectangle width="30" height="40" as="alternateBounds" />
          </mxGeometry>
        </mxCell>
        <mxCell id="sEl1DTWgJ6SeNd6wzwwH-10" value="" style="shape=partialRectangle;connectable=0;fillColor=none;top=0;left=0;bottom=0;right=0;align=left;spacingLeft=6;overflow=hidden;" parent="sEl1DTWgJ6SeNd6wzwwH-8" vertex="1">
          <mxGeometry x="30" width="329" height="40" as="geometry">
            <mxRectangle width="329" height="40" as="alternateBounds" />
          </mxGeometry>
        </mxCell>
        <mxCell id="sEl1DTWgJ6SeNd6wzwwH-11" value="description TEXT, NOT NULL" style="whiteSpace=wrap;html=1;align=left;" parent="1" vertex="1">
          <mxGeometry x="789" y="200" width="250" height="40" as="geometry" />
        </mxCell>
        <mxCell id="sEl1DTWgJ6SeNd6wzwwH-12" value="location VARCHAR, NOT NULL" style="whiteSpace=wrap;html=1;align=left;" parent="1" vertex="1">
          <mxGeometry x="789" y="240" width="250" height="40" as="geometry" />
        </mxCell>
        <mxCell id="sEl1DTWgJ6SeNd6wzwwH-13" value="pricepermight DECIMAL, NOT NULL" style="whiteSpace=wrap;html=1;align=left;" parent="1" vertex="1">
          <mxGeometry x="789" y="280" width="250" height="40" as="geometry" />
        </mxCell>
        <mxCell id="sEl1DTWgJ6SeNd6wzwwH-16" value="created_at TIMESTAMP, DEFAULT CURRENT_TIMESTAMP" style="whiteSpace=wrap;html=1;align=left;" parent="1" vertex="1">
          <mxGeometry x="789" y="320" width="250" height="40" as="geometry" />
        </mxCell>
        <mxCell id="sEl1DTWgJ6SeNd6wzwwH-18" value="&lt;span style=&quot;text-wrap-mode: nowrap;&quot;&gt;host_id Foreign Key, references User(user_id)&lt;/span&gt;" style="whiteSpace=wrap;html=1;align=left;" parent="1" vertex="1">
          <mxGeometry x="789" y="130" width="250" height="40" as="geometry" />
        </mxCell>
        <mxCell id="sEl1DTWgJ6SeNd6wzwwH-20" value="name VARCHAR, NOT NULL" style="whiteSpace=wrap;html=1;align=left;" parent="1" vertex="1">
          <mxGeometry x="789" y="170" width="250" height="40" as="geometry" />
        </mxCell>
        <mxCell id="sEl1DTWgJ6SeNd6wzwwH-21" value="updated_at TIMESTAMP, DEFAULT CURRENT_TIMESTAMP" style="whiteSpace=wrap;html=1;align=left;" parent="1" vertex="1">
          <mxGeometry x="789" y="360" width="250" height="40" as="geometry" />
        </mxCell>
        <mxCell id="sEl1DTWgJ6SeNd6wzwwH-23" value="" style="edgeStyle=orthogonalEdgeStyle;fontSize=12;html=1;endArrow=ERmandOne;startArrow=ERmandOne;rounded=0;exitX=1;exitY=0.5;exitDx=0;exitDy=0;entryX=0;entryY=0.5;entryDx=0;entryDy=0;" parent="1" source="C-vyLk0tnHw3VtMMgP7b-24" target="sEl1DTWgJ6SeNd6wzwwH-5" edge="1">
          <mxGeometry width="100" height="100" relative="1" as="geometry">
            <mxPoint x="470" y="210" as="sourcePoint" />
            <mxPoint x="570" y="110" as="targetPoint" />
            <Array as="points">
              <mxPoint x="580" y="125" />
              <mxPoint x="580" y="150" />
            </Array>
          </mxGeometry>
        </mxCell>
        <mxCell id="sEl1DTWgJ6SeNd6wzwwH-40" value="Booking" style="shape=table;startSize=30;container=1;collapsible=1;childLayout=tableLayout;fixedRows=1;rowLines=0;fontStyle=1;align=center;resizeLast=1;" parent="1" vertex="1">
          <mxGeometry x="491" y="730" width="359" height="450" as="geometry" />
        </mxCell>
        <mxCell id="sEl1DTWgJ6SeNd6wzwwH-41" value="" style="shape=partialRectangle;collapsible=0;dropTarget=0;pointerEvents=0;fillColor=none;points=[[0,0.5],[1,0.5]];portConstraint=eastwest;top=0;left=0;right=0;bottom=1;" parent="sEl1DTWgJ6SeNd6wzwwH-40" vertex="1">
          <mxGeometry y="30" width="359" height="30" as="geometry" />
        </mxCell>
        <mxCell id="sEl1DTWgJ6SeNd6wzwwH-42" value="PK" style="shape=partialRectangle;overflow=hidden;connectable=0;fillColor=none;top=0;left=0;bottom=0;right=0;fontStyle=1;" parent="sEl1DTWgJ6SeNd6wzwwH-41" vertex="1">
          <mxGeometry width="30" height="30" as="geometry">
            <mxRectangle width="30" height="30" as="alternateBounds" />
          </mxGeometry>
        </mxCell>
        <mxCell id="sEl1DTWgJ6SeNd6wzwwH-43" value="booking_id UUID, Indexed" style="shape=partialRectangle;overflow=hidden;connectable=0;fillColor=none;top=0;left=0;bottom=0;right=0;align=left;spacingLeft=6;fontStyle=5;" parent="sEl1DTWgJ6SeNd6wzwwH-41" vertex="1">
          <mxGeometry x="30" width="329" height="30" as="geometry">
            <mxRectangle width="329" height="30" as="alternateBounds" />
          </mxGeometry>
        </mxCell>
        <mxCell id="sEl1DTWgJ6SeNd6wzwwH-44" value="" style="shape=partialRectangle;collapsible=0;dropTarget=0;pointerEvents=0;fillColor=none;points=[[0,0.5],[1,0.5]];portConstraint=eastwest;top=0;left=0;right=0;bottom=0;" parent="sEl1DTWgJ6SeNd6wzwwH-40" vertex="1">
          <mxGeometry y="60" width="359" height="40" as="geometry" />
        </mxCell>
        <mxCell id="sEl1DTWgJ6SeNd6wzwwH-45" value="" style="shape=partialRectangle;overflow=hidden;connectable=0;fillColor=none;top=0;left=0;bottom=0;right=0;" parent="sEl1DTWgJ6SeNd6wzwwH-44" vertex="1">
          <mxGeometry width="30" height="40" as="geometry">
            <mxRectangle width="30" height="40" as="alternateBounds" />
          </mxGeometry>
        </mxCell>
        <mxCell id="sEl1DTWgJ6SeNd6wzwwH-46" value="" style="shape=partialRectangle;overflow=hidden;connectable=0;fillColor=none;top=0;left=0;bottom=0;right=0;align=left;spacingLeft=6;gradientColor=default;strokeColor=default;" parent="sEl1DTWgJ6SeNd6wzwwH-44" vertex="1">
          <mxGeometry x="30" width="329" height="40" as="geometry">
            <mxRectangle width="329" height="40" as="alternateBounds" />
          </mxGeometry>
        </mxCell>
        <mxCell id="sEl1DTWgJ6SeNd6wzwwH-47" value="" style="shape=tableRow;horizontal=0;startSize=0;swimlaneHead=0;swimlaneBody=0;fillColor=none;collapsible=0;dropTarget=0;points=[[0,0.5],[1,0.5]];portConstraint=eastwest;top=0;left=0;right=0;bottom=0;" parent="sEl1DTWgJ6SeNd6wzwwH-40" vertex="1">
          <mxGeometry y="100" width="359" height="40" as="geometry" />
        </mxCell>
        <mxCell id="sEl1DTWgJ6SeNd6wzwwH-48" value="" style="shape=partialRectangle;connectable=0;fillColor=none;top=0;left=0;bottom=0;right=0;editable=1;overflow=hidden;" parent="sEl1DTWgJ6SeNd6wzwwH-47" vertex="1">
          <mxGeometry width="30" height="40" as="geometry">
            <mxRectangle width="30" height="40" as="alternateBounds" />
          </mxGeometry>
        </mxCell>
        <mxCell id="sEl1DTWgJ6SeNd6wzwwH-49" value="" style="shape=partialRectangle;connectable=0;fillColor=none;top=0;left=0;bottom=0;right=0;align=left;spacingLeft=6;overflow=hidden;" parent="sEl1DTWgJ6SeNd6wzwwH-47" vertex="1">
          <mxGeometry x="30" width="329" height="40" as="geometry">
            <mxRectangle width="329" height="40" as="alternateBounds" />
          </mxGeometry>
        </mxCell>
        <mxCell id="sEl1DTWgJ6SeNd6wzwwH-50" value="start_date DATE, NOT NULL" style="whiteSpace=wrap;html=1;align=left;" parent="1" vertex="1">
          <mxGeometry x="520" y="860" width="310" height="40" as="geometry" />
        </mxCell>
        <mxCell id="sEl1DTWgJ6SeNd6wzwwH-51" value="end_date DATE, NOT NULL" style="whiteSpace=wrap;html=1;align=left;" parent="1" vertex="1">
          <mxGeometry x="520" y="900" width="310" height="40" as="geometry" />
        </mxCell>
        <mxCell id="sEl1DTWgJ6SeNd6wzwwH-52" value="total_price DECIMAL, NOT NULL" style="whiteSpace=wrap;html=1;align=left;" parent="1" vertex="1">
          <mxGeometry x="520" y="940" width="310" height="40" as="geometry" />
        </mxCell>
        <mxCell id="sEl1DTWgJ6SeNd6wzwwH-53" value="status ENUM(pending, confirmed, canceled)" style="whiteSpace=wrap;html=1;align=left;" parent="1" vertex="1">
          <mxGeometry x="520" y="980" width="310" height="40" as="geometry" />
        </mxCell>
        <mxCell id="eIfzVCCUzPAHuEsJjM8P-56" style="edgeStyle=orthogonalEdgeStyle;shape=connector;rounded=0;orthogonalLoop=1;jettySize=auto;html=1;entryX=0;entryY=0.5;entryDx=0;entryDy=0;strokeColor=default;align=center;verticalAlign=middle;fontFamily=Helvetica;fontSize=12;fontColor=default;labelBackgroundColor=default;startSize=8;endArrow=classic;endSize=8;" edge="1" parent="1" source="sEl1DTWgJ6SeNd6wzwwH-54" target="sEl1DTWgJ6SeNd6wzwwH-2">
          <mxGeometry relative="1" as="geometry">
            <Array as="points">
              <mxPoint x="460" y="810" />
              <mxPoint x="460" y="230" />
              <mxPoint x="720" y="230" />
              <mxPoint x="720" y="115" />
            </Array>
          </mxGeometry>
        </mxCell>
        <mxCell id="sEl1DTWgJ6SeNd6wzwwH-54" value="&lt;span style=&quot;text-wrap-mode: nowrap;&quot;&gt;property_id Foreign Key, references Property(property_id)&lt;/span&gt;" style="whiteSpace=wrap;html=1;align=left;" parent="1" vertex="1">
          <mxGeometry x="520" y="790" width="310" height="40" as="geometry" />
        </mxCell>
        <mxCell id="sEl1DTWgJ6SeNd6wzwwH-55" value="user_id Foreign Key, references User(user_id)" style="whiteSpace=wrap;html=1;align=left;" parent="1" vertex="1">
          <mxGeometry x="520" y="830" width="310" height="40" as="geometry" />
        </mxCell>
        <mxCell id="sEl1DTWgJ6SeNd6wzwwH-56" value="created_at TIMESTAMP, DEFAULT CURRENT_TIMESTAMP" style="whiteSpace=wrap;html=1;align=left;" parent="1" vertex="1">
          <mxGeometry x="520" y="1020" width="310" height="40" as="geometry" />
        </mxCell>
        <mxCell id="eIfzVCCUzPAHuEsJjM8P-1" value="Payement" style="shape=table;startSize=30;container=1;collapsible=1;childLayout=tableLayout;fixedRows=1;rowLines=0;fontStyle=1;align=center;resizeLast=1;" vertex="1" parent="1">
          <mxGeometry x="960" y="730" width="359" height="450" as="geometry" />
        </mxCell>
        <mxCell id="eIfzVCCUzPAHuEsJjM8P-2" value="" style="shape=partialRectangle;collapsible=0;dropTarget=0;pointerEvents=0;fillColor=none;points=[[0,0.5],[1,0.5]];portConstraint=eastwest;top=0;left=0;right=0;bottom=1;" vertex="1" parent="eIfzVCCUzPAHuEsJjM8P-1">
          <mxGeometry y="30" width="359" height="30" as="geometry" />
        </mxCell>
        <mxCell id="eIfzVCCUzPAHuEsJjM8P-3" value="PK" style="shape=partialRectangle;overflow=hidden;connectable=0;fillColor=none;top=0;left=0;bottom=0;right=0;fontStyle=1;" vertex="1" parent="eIfzVCCUzPAHuEsJjM8P-2">
          <mxGeometry width="30" height="30" as="geometry">
            <mxRectangle width="30" height="30" as="alternateBounds" />
          </mxGeometry>
        </mxCell>
        <mxCell id="eIfzVCCUzPAHuEsJjM8P-4" value="payment_id UUID, Indexed" style="shape=partialRectangle;overflow=hidden;connectable=0;fillColor=none;top=0;left=0;bottom=0;right=0;align=left;spacingLeft=6;fontStyle=5;" vertex="1" parent="eIfzVCCUzPAHuEsJjM8P-2">
          <mxGeometry x="30" width="329" height="30" as="geometry">
            <mxRectangle width="329" height="30" as="alternateBounds" />
          </mxGeometry>
        </mxCell>
        <mxCell id="eIfzVCCUzPAHuEsJjM8P-5" value="" style="shape=partialRectangle;collapsible=0;dropTarget=0;pointerEvents=0;fillColor=none;points=[[0,0.5],[1,0.5]];portConstraint=eastwest;top=0;left=0;right=0;bottom=0;" vertex="1" parent="eIfzVCCUzPAHuEsJjM8P-1">
          <mxGeometry y="60" width="359" height="40" as="geometry" />
        </mxCell>
        <mxCell id="eIfzVCCUzPAHuEsJjM8P-6" value="" style="shape=partialRectangle;overflow=hidden;connectable=0;fillColor=none;top=0;left=0;bottom=0;right=0;" vertex="1" parent="eIfzVCCUzPAHuEsJjM8P-5">
          <mxGeometry width="30" height="40" as="geometry">
            <mxRectangle width="30" height="40" as="alternateBounds" />
          </mxGeometry>
        </mxCell>
        <mxCell id="eIfzVCCUzPAHuEsJjM8P-7" value="" style="shape=partialRectangle;overflow=hidden;connectable=0;fillColor=none;top=0;left=0;bottom=0;right=0;align=left;spacingLeft=6;gradientColor=default;strokeColor=default;" vertex="1" parent="eIfzVCCUzPAHuEsJjM8P-5">
          <mxGeometry x="30" width="329" height="40" as="geometry">
            <mxRectangle width="329" height="40" as="alternateBounds" />
          </mxGeometry>
        </mxCell>
        <mxCell id="eIfzVCCUzPAHuEsJjM8P-8" value="" style="shape=tableRow;horizontal=0;startSize=0;swimlaneHead=0;swimlaneBody=0;fillColor=none;collapsible=0;dropTarget=0;points=[[0,0.5],[1,0.5]];portConstraint=eastwest;top=0;left=0;right=0;bottom=0;" vertex="1" parent="eIfzVCCUzPAHuEsJjM8P-1">
          <mxGeometry y="100" width="359" height="40" as="geometry" />
        </mxCell>
        <mxCell id="eIfzVCCUzPAHuEsJjM8P-9" value="" style="shape=partialRectangle;connectable=0;fillColor=none;top=0;left=0;bottom=0;right=0;editable=1;overflow=hidden;" vertex="1" parent="eIfzVCCUzPAHuEsJjM8P-8">
          <mxGeometry width="30" height="40" as="geometry">
            <mxRectangle width="30" height="40" as="alternateBounds" />
          </mxGeometry>
        </mxCell>
        <mxCell id="eIfzVCCUzPAHuEsJjM8P-10" value="" style="shape=partialRectangle;connectable=0;fillColor=none;top=0;left=0;bottom=0;right=0;align=left;spacingLeft=6;overflow=hidden;" vertex="1" parent="eIfzVCCUzPAHuEsJjM8P-8">
          <mxGeometry x="30" width="329" height="40" as="geometry">
            <mxRectangle width="329" height="40" as="alternateBounds" />
          </mxGeometry>
        </mxCell>
        <mxCell id="eIfzVCCUzPAHuEsJjM8P-11" value="payment_date TIMESTAMP, DEFAULT CURRENT_TIMESTAMP" style="whiteSpace=wrap;html=1;align=left;" vertex="1" parent="1">
          <mxGeometry x="989" y="870" width="310" height="40" as="geometry" />
        </mxCell>
        <mxCell id="eIfzVCCUzPAHuEsJjM8P-12" value="payment_method ENUM(credit_card, paypal, stripe), NOT NULL" style="whiteSpace=wrap;html=1;align=left;" vertex="1" parent="1">
          <mxGeometry x="989" y="910" width="310" height="40" as="geometry" />
        </mxCell>
        <mxCell id="eIfzVCCUzPAHuEsJjM8P-15" value="&lt;span style=&quot;text-wrap-mode: nowrap;&quot;&gt;booking_id Foreign Key, references Booking(booking_id)&lt;/span&gt;" style="whiteSpace=wrap;html=1;align=left;" vertex="1" parent="1">
          <mxGeometry x="989" y="790" width="310" height="40" as="geometry" />
        </mxCell>
        <mxCell id="eIfzVCCUzPAHuEsJjM8P-16" value="amount DECIMAL, NOT NULL" style="whiteSpace=wrap;html=1;align=left;" vertex="1" parent="1">
          <mxGeometry x="989" y="830" width="310" height="40" as="geometry" />
        </mxCell>
        <mxCell id="eIfzVCCUzPAHuEsJjM8P-18" value="Review" style="shape=table;startSize=30;container=1;collapsible=1;childLayout=tableLayout;fixedRows=1;rowLines=0;fontStyle=1;align=center;resizeLast=1;" vertex="1" parent="1">
          <mxGeometry x="760" y="-560" width="359" height="450" as="geometry" />
        </mxCell>
        <mxCell id="eIfzVCCUzPAHuEsJjM8P-19" value="" style="shape=partialRectangle;collapsible=0;dropTarget=0;pointerEvents=0;fillColor=none;points=[[0,0.5],[1,0.5]];portConstraint=eastwest;top=0;left=0;right=0;bottom=1;" vertex="1" parent="eIfzVCCUzPAHuEsJjM8P-18">
          <mxGeometry y="30" width="359" height="30" as="geometry" />
        </mxCell>
        <mxCell id="eIfzVCCUzPAHuEsJjM8P-20" value="PK" style="shape=partialRectangle;overflow=hidden;connectable=0;fillColor=none;top=0;left=0;bottom=0;right=0;fontStyle=1;" vertex="1" parent="eIfzVCCUzPAHuEsJjM8P-19">
          <mxGeometry width="30" height="30" as="geometry">
            <mxRectangle width="30" height="30" as="alternateBounds" />
          </mxGeometry>
        </mxCell>
        <mxCell id="eIfzVCCUzPAHuEsJjM8P-21" value="review_id UUID, Indexed" style="shape=partialRectangle;overflow=hidden;connectable=0;fillColor=none;top=0;left=0;bottom=0;right=0;align=left;spacingLeft=6;fontStyle=5;" vertex="1" parent="eIfzVCCUzPAHuEsJjM8P-19">
          <mxGeometry x="30" width="329" height="30" as="geometry">
            <mxRectangle width="329" height="30" as="alternateBounds" />
          </mxGeometry>
        </mxCell>
        <mxCell id="eIfzVCCUzPAHuEsJjM8P-22" value="" style="shape=partialRectangle;collapsible=0;dropTarget=0;pointerEvents=0;fillColor=none;points=[[0,0.5],[1,0.5]];portConstraint=eastwest;top=0;left=0;right=0;bottom=0;" vertex="1" parent="eIfzVCCUzPAHuEsJjM8P-18">
          <mxGeometry y="60" width="359" height="40" as="geometry" />
        </mxCell>
        <mxCell id="eIfzVCCUzPAHuEsJjM8P-23" value="" style="shape=partialRectangle;overflow=hidden;connectable=0;fillColor=none;top=0;left=0;bottom=0;right=0;" vertex="1" parent="eIfzVCCUzPAHuEsJjM8P-22">
          <mxGeometry width="30" height="40" as="geometry">
            <mxRectangle width="30" height="40" as="alternateBounds" />
          </mxGeometry>
        </mxCell>
        <mxCell id="eIfzVCCUzPAHuEsJjM8P-24" value="" style="shape=partialRectangle;overflow=hidden;connectable=0;fillColor=none;top=0;left=0;bottom=0;right=0;align=left;spacingLeft=6;gradientColor=default;strokeColor=default;" vertex="1" parent="eIfzVCCUzPAHuEsJjM8P-22">
          <mxGeometry x="30" width="329" height="40" as="geometry">
            <mxRectangle width="329" height="40" as="alternateBounds" />
          </mxGeometry>
        </mxCell>
        <mxCell id="eIfzVCCUzPAHuEsJjM8P-25" value="" style="shape=tableRow;horizontal=0;startSize=0;swimlaneHead=0;swimlaneBody=0;fillColor=none;collapsible=0;dropTarget=0;points=[[0,0.5],[1,0.5]];portConstraint=eastwest;top=0;left=0;right=0;bottom=0;" vertex="1" parent="eIfzVCCUzPAHuEsJjM8P-18">
          <mxGeometry y="100" width="359" height="40" as="geometry" />
        </mxCell>
        <mxCell id="eIfzVCCUzPAHuEsJjM8P-26" value="" style="shape=partialRectangle;connectable=0;fillColor=none;top=0;left=0;bottom=0;right=0;editable=1;overflow=hidden;" vertex="1" parent="eIfzVCCUzPAHuEsJjM8P-25">
          <mxGeometry width="30" height="40" as="geometry">
            <mxRectangle width="30" height="40" as="alternateBounds" />
          </mxGeometry>
        </mxCell>
        <mxCell id="eIfzVCCUzPAHuEsJjM8P-27" value="" style="shape=partialRectangle;connectable=0;fillColor=none;top=0;left=0;bottom=0;right=0;align=left;spacingLeft=6;overflow=hidden;" vertex="1" parent="eIfzVCCUzPAHuEsJjM8P-25">
          <mxGeometry x="30" width="329" height="40" as="geometry">
            <mxRectangle width="329" height="40" as="alternateBounds" />
          </mxGeometry>
        </mxCell>
        <mxCell id="eIfzVCCUzPAHuEsJjM8P-28" value="rating INTEGER, CHECK rating &amp;gt;= 1 AND rating &amp;lt;= 5, NOT NULL" style="whiteSpace=wrap;html=1;align=left;" vertex="1" parent="1">
          <mxGeometry x="789" y="-420" width="311" height="50" as="geometry" />
        </mxCell>
        <mxCell id="eIfzVCCUzPAHuEsJjM8P-29" value="comment TEXT, NOT NULL" style="whiteSpace=wrap;html=1;align=left;" vertex="1" parent="1">
          <mxGeometry x="789" y="-370" width="311" height="40" as="geometry" />
        </mxCell>
        <mxCell id="eIfzVCCUzPAHuEsJjM8P-31" value="created_at TIMESTAMP, DEFAULT CURRENT_TIMESTAMP" style="whiteSpace=wrap;html=1;align=left;" vertex="1" parent="1">
          <mxGeometry x="789" y="-330" width="311" height="40" as="geometry" />
        </mxCell>
        <mxCell id="eIfzVCCUzPAHuEsJjM8P-32" value="&lt;span style=&quot;text-wrap-mode: nowrap;&quot;&gt;property_id Foreign Key, references Property(property_id)&lt;/span&gt;" style="whiteSpace=wrap;html=1;align=left;" vertex="1" parent="1">
          <mxGeometry x="789" y="-500" width="311" height="40" as="geometry" />
        </mxCell>
        <mxCell id="eIfzVCCUzPAHuEsJjM8P-55" style="edgeStyle=orthogonalEdgeStyle;shape=connector;rounded=0;orthogonalLoop=1;jettySize=auto;html=1;entryX=1;entryY=0.5;entryDx=0;entryDy=0;strokeColor=default;align=center;verticalAlign=middle;fontFamily=Helvetica;fontSize=12;fontColor=default;labelBackgroundColor=default;startSize=8;endArrow=classic;endSize=8;" edge="1" parent="1" source="eIfzVCCUzPAHuEsJjM8P-33" target="C-vyLk0tnHw3VtMMgP7b-24">
          <mxGeometry relative="1" as="geometry">
            <Array as="points">
              <mxPoint x="610" y="-440" />
              <mxPoint x="610" y="125" />
            </Array>
          </mxGeometry>
        </mxCell>
        <mxCell id="eIfzVCCUzPAHuEsJjM8P-33" value="user_id Foreign Key, reference Property(property_id)" style="whiteSpace=wrap;html=1;align=left;" vertex="1" parent="1">
          <mxGeometry x="789" y="-460" width="311" height="40" as="geometry" />
        </mxCell>
        <mxCell id="eIfzVCCUzPAHuEsJjM8P-35" value="Message" style="shape=table;startSize=30;container=1;collapsible=1;childLayout=tableLayout;fixedRows=1;rowLines=0;fontStyle=1;align=center;resizeLast=1;" vertex="1" parent="1">
          <mxGeometry x="130" y="-535" width="359" height="450" as="geometry" />
        </mxCell>
        <mxCell id="eIfzVCCUzPAHuEsJjM8P-36" value="" style="shape=partialRectangle;collapsible=0;dropTarget=0;pointerEvents=0;fillColor=none;points=[[0,0.5],[1,0.5]];portConstraint=eastwest;top=0;left=0;right=0;bottom=1;" vertex="1" parent="eIfzVCCUzPAHuEsJjM8P-35">
          <mxGeometry y="30" width="359" height="30" as="geometry" />
        </mxCell>
        <mxCell id="eIfzVCCUzPAHuEsJjM8P-37" value="PK" style="shape=partialRectangle;overflow=hidden;connectable=0;fillColor=none;top=0;left=0;bottom=0;right=0;fontStyle=1;" vertex="1" parent="eIfzVCCUzPAHuEsJjM8P-36">
          <mxGeometry width="30" height="30" as="geometry">
            <mxRectangle width="30" height="30" as="alternateBounds" />
          </mxGeometry>
        </mxCell>
        <mxCell id="eIfzVCCUzPAHuEsJjM8P-38" value="message_id UUID, Indexed" style="shape=partialRectangle;overflow=hidden;connectable=0;fillColor=none;top=0;left=0;bottom=0;right=0;align=left;spacingLeft=6;fontStyle=5;" vertex="1" parent="eIfzVCCUzPAHuEsJjM8P-36">
          <mxGeometry x="30" width="329" height="30" as="geometry">
            <mxRectangle width="329" height="30" as="alternateBounds" />
          </mxGeometry>
        </mxCell>
        <mxCell id="eIfzVCCUzPAHuEsJjM8P-39" value="" style="shape=partialRectangle;collapsible=0;dropTarget=0;pointerEvents=0;fillColor=none;points=[[0,0.5],[1,0.5]];portConstraint=eastwest;top=0;left=0;right=0;bottom=0;" vertex="1" parent="eIfzVCCUzPAHuEsJjM8P-35">
          <mxGeometry y="60" width="359" height="40" as="geometry" />
        </mxCell>
        <mxCell id="eIfzVCCUzPAHuEsJjM8P-40" value="" style="shape=partialRectangle;overflow=hidden;connectable=0;fillColor=none;top=0;left=0;bottom=0;right=0;" vertex="1" parent="eIfzVCCUzPAHuEsJjM8P-39">
          <mxGeometry width="30" height="40" as="geometry">
            <mxRectangle width="30" height="40" as="alternateBounds" />
          </mxGeometry>
        </mxCell>
        <mxCell id="eIfzVCCUzPAHuEsJjM8P-41" value="" style="shape=partialRectangle;overflow=hidden;connectable=0;fillColor=none;top=0;left=0;bottom=0;right=0;align=left;spacingLeft=6;gradientColor=default;strokeColor=default;" vertex="1" parent="eIfzVCCUzPAHuEsJjM8P-39">
          <mxGeometry x="30" width="329" height="40" as="geometry">
            <mxRectangle width="329" height="40" as="alternateBounds" />
          </mxGeometry>
        </mxCell>
        <mxCell id="eIfzVCCUzPAHuEsJjM8P-42" value="" style="shape=tableRow;horizontal=0;startSize=0;swimlaneHead=0;swimlaneBody=0;fillColor=none;collapsible=0;dropTarget=0;points=[[0,0.5],[1,0.5]];portConstraint=eastwest;top=0;left=0;right=0;bottom=0;" vertex="1" parent="eIfzVCCUzPAHuEsJjM8P-35">
          <mxGeometry y="100" width="359" height="40" as="geometry" />
        </mxCell>
        <mxCell id="eIfzVCCUzPAHuEsJjM8P-43" value="" style="shape=partialRectangle;connectable=0;fillColor=none;top=0;left=0;bottom=0;right=0;editable=1;overflow=hidden;" vertex="1" parent="eIfzVCCUzPAHuEsJjM8P-42">
          <mxGeometry width="30" height="40" as="geometry">
            <mxRectangle width="30" height="40" as="alternateBounds" />
          </mxGeometry>
        </mxCell>
        <mxCell id="eIfzVCCUzPAHuEsJjM8P-44" value="" style="shape=partialRectangle;connectable=0;fillColor=none;top=0;left=0;bottom=0;right=0;align=left;spacingLeft=6;overflow=hidden;" vertex="1" parent="eIfzVCCUzPAHuEsJjM8P-42">
          <mxGeometry x="30" width="329" height="40" as="geometry">
            <mxRectangle width="329" height="40" as="alternateBounds" />
          </mxGeometry>
        </mxCell>
        <mxCell id="eIfzVCCUzPAHuEsJjM8P-45" value="message_body TEXT NOT NULL" style="whiteSpace=wrap;html=1;align=left;" vertex="1" parent="1">
          <mxGeometry x="159" y="-405" width="311" height="40" as="geometry" />
        </mxCell>
        <mxCell id="eIfzVCCUzPAHuEsJjM8P-46" value="sent_at TIMESTAMP, DEFAULT CURRENT_TIMESTAMP" style="whiteSpace=wrap;html=1;align=left;" vertex="1" parent="1">
          <mxGeometry x="159" y="-365" width="311" height="40" as="geometry" />
        </mxCell>
        <mxCell id="eIfzVCCUzPAHuEsJjM8P-52" style="edgeStyle=orthogonalEdgeStyle;rounded=0;orthogonalLoop=1;jettySize=auto;html=1;entryX=0;entryY=0.5;entryDx=0;entryDy=0;fontSize=12;startSize=8;endSize=8;" edge="1" parent="1" source="eIfzVCCUzPAHuEsJjM8P-49" target="C-vyLk0tnHw3VtMMgP7b-24">
          <mxGeometry relative="1" as="geometry">
            <Array as="points">
              <mxPoint x="50" y="-455" />
              <mxPoint x="50" y="125" />
            </Array>
          </mxGeometry>
        </mxCell>
        <mxCell id="eIfzVCCUzPAHuEsJjM8P-49" value="&lt;span style=&quot;text-wrap-mode: nowrap;&quot;&gt;sender_id Foreign Key, references User(user_id)&lt;/span&gt;" style="whiteSpace=wrap;html=1;align=left;" vertex="1" parent="1">
          <mxGeometry x="159" y="-475" width="311" height="40" as="geometry" />
        </mxCell>
        <mxCell id="eIfzVCCUzPAHuEsJjM8P-53" style="edgeStyle=orthogonalEdgeStyle;rounded=0;orthogonalLoop=1;jettySize=auto;html=1;entryX=0;entryY=0.5;entryDx=0;entryDy=0;fontSize=12;startSize=8;endSize=8;" edge="1" parent="1" source="eIfzVCCUzPAHuEsJjM8P-50" target="C-vyLk0tnHw3VtMMgP7b-24">
          <mxGeometry relative="1" as="geometry">
            <Array as="points">
              <mxPoint x="80" y="-415" />
              <mxPoint x="80" y="125" />
            </Array>
          </mxGeometry>
        </mxCell>
        <mxCell id="eIfzVCCUzPAHuEsJjM8P-50" value="recipient_id Foreign Key, reference User(user_id)" style="whiteSpace=wrap;html=1;align=left;" vertex="1" parent="1">
          <mxGeometry x="159" y="-435" width="311" height="40" as="geometry" />
        </mxCell>
        <mxCell id="eIfzVCCUzPAHuEsJjM8P-54" style="edgeStyle=orthogonalEdgeStyle;shape=connector;rounded=0;orthogonalLoop=1;jettySize=auto;html=1;entryX=0;entryY=0.5;entryDx=0;entryDy=0;strokeColor=default;align=center;verticalAlign=middle;fontFamily=Helvetica;fontSize=12;fontColor=default;labelBackgroundColor=default;startSize=8;endArrow=classic;endSize=8;" edge="1" parent="1" source="eIfzVCCUzPAHuEsJjM8P-22" target="sEl1DTWgJ6SeNd6wzwwH-18">
          <mxGeometry relative="1" as="geometry">
            <Array as="points">
              <mxPoint x="680" y="-480" />
              <mxPoint x="680" y="150" />
            </Array>
          </mxGeometry>
        </mxCell>
        <mxCell id="eIfzVCCUzPAHuEsJjM8P-57" style="edgeStyle=orthogonalEdgeStyle;shape=connector;rounded=0;orthogonalLoop=1;jettySize=auto;html=1;entryX=0;entryY=0.5;entryDx=0;entryDy=0;strokeColor=default;align=center;verticalAlign=middle;fontFamily=Helvetica;fontSize=12;fontColor=default;labelBackgroundColor=default;startSize=8;endArrow=classic;endSize=8;" edge="1" parent="1" source="sEl1DTWgJ6SeNd6wzwwH-47" target="C-vyLk0tnHw3VtMMgP7b-24">
          <mxGeometry relative="1" as="geometry">
            <Array as="points">
              <mxPoint x="70" y="850" />
              <mxPoint x="70" y="125" />
            </Array>
          </mxGeometry>
        </mxCell>
        <mxCell id="eIfzVCCUzPAHuEsJjM8P-58" style="edgeStyle=orthogonalEdgeStyle;shape=connector;rounded=0;orthogonalLoop=1;jettySize=auto;html=1;entryX=1;entryY=0.5;entryDx=0;entryDy=0;strokeColor=default;align=center;verticalAlign=middle;fontFamily=Helvetica;fontSize=12;fontColor=default;labelBackgroundColor=default;startSize=8;endArrow=classic;endSize=8;" edge="1" parent="1" source="eIfzVCCUzPAHuEsJjM8P-5" target="sEl1DTWgJ6SeNd6wzwwH-41">
          <mxGeometry relative="1" as="geometry" />
        </mxCell>
      </root>
    </mxGraphModel>
  </diagram>
</mxfile>
